<svg xmlns="http://www.w3.org/2000/svg" version="1.1" xmlns:xlink="http://www.w3.org/1999/xlink" xmlns:svgjs="http://svgjs.dev/svgjs" width="1000" height="1000" viewBox="0 0 1000 1000"><rect width="1000" height="1000" fill="#ffffff"></rect><g transform="matrix(0.3854625550660793,0,0,0.3854625550660793,307.22844301738155,150.28340080971657)"><svg viewBox="0 0 136 247" data-background-color="#ffffff" preserveAspectRatio="xMidYMid meet" height="1816" width="1000" xmlns="http://www.w3.org/2000/svg" xmlns:xlink="http://www.w3.org/1999/xlink"><g id="tight-bounds" transform="matrix(1,0,0,1,0.014211510484528844,-0.09999999999999432)"><svg viewBox="0 0 135.97157697903094 247.2" height="247.2" width="135.97157697903094"><g><svg viewBox="0 0 203.9521985486212 370.7906064" height="247.2" width="135.97157697903094"><g><svg viewBox="0 0 203.9521985486212 370.7906064" height="370.7906064" width="203.9521985486212"><g id="textblocktransform"><svg viewBox="0 0 203.9521985486212 370.7906064" height="370.7906064" width="203.9521985486212" id="textblock"><g><rect width="203.9521985486212" height="247.2" fill="none" stroke-width="9.018103199999999" stroke="#ca3433" data-fill-palette-color="none" data-stroke-palette-color="tertiary"></rect><rect width="203.9521985486212" height="123.5906064" y="247.2" fill="#ca3433" data-fill-palette-color="tertiary"></rect></g><g><svg viewBox="0 0 203.9521985486212 247.2" height="247.2" width="203.9521985486212"><g transform="matrix(1,0,0,1,23.607599999999998,23.607599999999998)"><svg width="156.7369985486212" viewBox="1.5 -34.45 27 34.45" height="199.9848" data-palette-color="#ca3433"><path d="M26.55-34.45L28.5 0 24.3 0 23.25-18Q22.95-22.75 22.95-30.45L22.95-30.45 17.15-6.2 12.8-6.2 6.6-30.45Q6.7-28.65 6.7-25.65L6.7-25.65Q6.7-21.05 6.5-18L6.5-18 5.6 0 1.5 0 3.45-34.45 9.5-34.45 15.1-10.85 20.45-34.45 26.55-34.45Z" opacity="1" transform="matrix(1,0,0,1,0,0)" fill="#ca3433" class="wordmark-text-0" data-fill-palette-color="primary" id="text-0"></path></svg></g></svg></g></svg></g></svg></g></svg></g><defs></defs></svg><rect width="135.97157697903094" height="247.2" fill="none" stroke="none" visibility="hidden"></rect></g></svg></g></svg>